<svg width="37" height="37" viewBox="0 0 37 37" fill="none" xmlns="http://www.w3.org/2000/svg">
<g clip-path="url(#clip0_1_45)">
<path d="M33.5312 37H3.46875C1.54938 37 0 35.4506 0 33.5312V5.78125C0 3.86188 1.54938 2.3125 3.46875 2.3125H33.5312C35.4506 2.3125 37 3.86188 37 5.78125V33.5312C37 35.4506 35.4506 37 33.5312 37ZM3.46875 4.625C2.82125 4.625 2.3125 5.13375 2.3125 5.78125V33.5312C2.3125 34.1788 2.82125 34.6875 3.46875 34.6875H33.5312C34.1788 34.6875 34.6875 34.1788 34.6875 33.5312V5.78125C34.6875 5.13375 34.1788 4.625 33.5312 4.625H3.46875Z" fill="black"/>
<path d="M10.4062 9.25C9.75875 9.25 9.25 8.74125 9.25 8.09375V1.15625C9.25 0.50875 9.75875 0 10.4062 0C11.0538 0 11.5625 0.50875 11.5625 1.15625V8.09375C11.5625 8.74125 11.0538 9.25 10.4062 9.25ZM26.5938 9.25C25.9462 9.25 25.4375 8.74125 25.4375 8.09375V1.15625C25.4375 0.50875 25.9462 0 26.5938 0C27.2413 0 27.75 0.50875 27.75 1.15625V8.09375C27.75 8.74125 27.2413 9.25 26.5938 9.25ZM35.8438 13.875H1.15625C0.50875 13.875 0 13.3663 0 12.7188C0 12.0712 0.50875 11.5625 1.15625 11.5625H35.8438C36.4913 11.5625 37 12.0712 37 12.7188C37 13.3663 36.4913 13.875 35.8438 13.875Z" fill="black"/>
</g>
<defs>
<clipPath id="clip0_1_45">
<rect width="37" height="37" fill="white"/>
</clipPath>
</defs>
</svg>
