<svg width="41" height="41" viewBox="0 0 41 41" fill="none" xmlns="http://www.w3.org/2000/svg">
<path d="M20.4999 6.56104C29.9351 6.56104 37.5833 14.2092 37.5833 23.6444C37.5833 33.0795 29.9351 40.7277 20.4999 40.7277C11.0648 40.7277 3.4166 33.0795 3.4166 23.6444C3.4166 14.2092 11.0648 6.56104 20.4999 6.56104ZM20.4999 9.9777C16.8753 9.9777 13.3991 11.4176 10.8361 13.9806C8.27314 16.5436 6.83326 20.0197 6.83326 23.6444C6.83326 27.269 8.27314 30.7452 10.8361 33.3082C13.3991 35.8712 16.8753 37.311 20.4999 37.311C24.1246 37.311 27.6007 35.8712 30.1637 33.3082C32.7267 30.7452 34.1666 27.269 34.1666 23.6444C34.1666 20.0197 32.7267 16.5436 30.1637 13.9806C27.6007 11.4176 24.1246 9.9777 20.4999 9.9777ZM20.4999 13.3944C20.9184 13.3944 21.3222 13.548 21.6349 13.8261C21.9476 14.1041 22.1473 14.4873 22.1963 14.9028L22.2083 15.1027V22.9371L26.8327 27.5616C27.1391 27.869 27.317 28.2815 27.3302 28.7154C27.3435 29.1492 27.1911 29.5718 26.904 29.8973C26.617 30.2229 26.2168 30.427 25.7847 30.4681C25.3526 30.5093 24.9211 30.3844 24.5777 30.119L24.4171 29.9772L19.2921 24.8522C19.0266 24.5864 18.8561 24.2406 18.807 23.8682L18.7916 23.6444V15.1027C18.7916 14.6496 18.9716 14.2151 19.292 13.8947C19.6123 13.5744 20.0469 13.3944 20.4999 13.3944Z" fill="black"/>
</svg>
