<svg width="66" height="66" viewBox="0 0 66 66" fill="none" xmlns="http://www.w3.org/2000/svg">
<path d="M13.75 52.2502V28.3472C13.75 27.6432 13.9077 26.9767 14.223 26.3479C14.5383 25.7191 14.9728 25.2012 15.5265 24.7942L30.3353 13.5797C31.1108 12.9875 31.9962 12.6914 32.9917 12.6914C33.9872 12.6914 34.8782 12.9875 35.6647 13.5797L50.4735 24.7914C51.029 25.1984 51.4635 25.7172 51.777 26.3479C52.0923 26.9767 52.25 27.6432 52.25 28.3472V52.2502C52.25 52.9872 51.9759 53.6297 51.4278 54.1779C50.8796 54.7261 50.237 55.0002 49.5 55.0002H40.194C39.5633 55.0002 39.0353 54.7875 38.61 54.3622C38.1847 53.935 37.972 53.407 37.972 52.7782V39.6634C37.972 39.0346 37.7593 38.5075 37.334 38.0822C36.9068 37.655 36.3788 37.4414 35.75 37.4414H30.25C29.6212 37.4414 29.0941 37.655 28.6688 38.0822C28.2416 38.5075 28.028 39.0346 28.028 39.6634V52.7809C28.028 53.4097 27.8153 53.9368 27.39 54.3622C26.9647 54.7875 26.4376 55.0002 25.8088 55.0002H16.5C15.763 55.0002 15.1204 54.7261 14.5722 54.1779C14.0241 53.6297 13.75 52.9872 13.75 52.2502Z" fill="#EE5C3B"/>
</svg>
