<svg width="93" height="93" viewBox="0 0 93 93" fill="none" xmlns="http://www.w3.org/2000/svg">
<path d="M46.5 46.5C42.2375 46.5 38.5885 44.9823 35.5531 41.9469C32.5177 38.9115 31 35.2625 31 31C31 26.7375 32.5177 23.0885 35.5531 20.0531C38.5885 17.0177 42.2375 15.5 46.5 15.5C50.7625 15.5 54.4115 17.0177 57.4469 20.0531C60.4823 23.0885 62 26.7375 62 31C62 35.2625 60.4823 38.9115 57.4469 41.9469C54.4115 44.9823 50.7625 46.5 46.5 46.5ZM15.5 77.5V66.65C15.5 64.4542 16.0658 62.4366 17.1973 60.5973C18.3288 58.7579 19.8297 57.3526 21.7 56.3813C25.7042 54.3792 29.7729 52.8783 33.9062 51.8785C38.0396 50.8788 42.2375 50.3776 46.5 50.375C50.7625 50.3724 54.9604 50.8736 59.0938 51.8785C63.2271 52.8834 67.2958 54.3843 71.3 56.3813C73.1729 57.35 74.6751 58.7553 75.8066 60.5973C76.9381 62.4392 77.5026 64.4568 77.5 66.65V77.5H15.5Z" fill="#EE5C3B"/>
</svg>
