<svg width="68" height="68" viewBox="0 0 68 68" fill="none" xmlns="http://www.w3.org/2000/svg">
<path d="M34 5.66675C38.3984 5.66659 42.6257 7.37119 45.7937 10.4224C48.9616 13.4736 50.8237 17.6339 50.9887 22.0292L51 22.6667H53.8333C55.263 22.6663 56.6399 23.2062 57.6882 24.1783C58.7365 25.1504 59.3786 26.4828 59.4858 27.9084L59.5 28.3334V56.6668C59.5005 58.0964 58.9605 59.4734 57.9884 60.5216C57.0163 61.5699 55.6839 62.212 54.2583 62.3193L53.8333 62.3334H14.1667C12.737 62.3339 11.3601 61.7939 10.3118 60.8218C9.2635 59.8498 8.62139 58.5174 8.51417 57.0917L8.5 56.6668V28.3334C8.49955 26.9038 9.03948 25.5268 10.0116 24.4785C10.9837 23.4302 12.3161 22.7881 13.7417 22.6809L14.1667 22.6667H17C17 18.1581 18.7911 13.8341 21.9792 10.6459C25.1673 7.45781 29.4913 5.66675 34 5.66675ZM53.8333 28.3334H14.1667V56.6668H53.8333V28.3334ZM34 34.0001C35.2087 34.0005 36.3856 34.3873 37.3587 35.1041C38.3319 35.8209 39.0504 36.8301 39.4093 37.9842C39.7682 39.1384 39.7486 40.3771 39.3535 41.5193C38.9584 42.6616 38.2083 43.6476 37.213 44.3333L36.8333 44.5741V48.1668C36.8325 48.8889 36.556 49.5835 36.0603 50.1086C35.5645 50.6337 34.887 50.9497 34.166 50.9921C33.4451 51.0344 32.7353 50.7998 32.1815 50.3363C31.6277 49.8728 31.2718 49.2154 31.1865 48.4983L31.1667 48.1668V44.5741C30.0864 43.9503 29.2422 42.9876 28.7649 41.8351C28.2876 40.6827 28.2038 39.405 28.5267 38.2001C28.8495 36.9952 29.5609 35.9305 30.5505 35.1711C31.5401 34.4118 32.7526 34.0001 34 34.0001ZM34 11.3334C30.9942 11.3334 28.1115 12.5275 25.9861 14.6529C23.8607 16.7783 22.6667 19.661 22.6667 22.6667H45.3333C45.3333 19.661 44.1393 16.7783 42.0139 14.6529C39.8885 12.5275 37.0058 11.3334 34 11.3334Z" fill="#EE5C3B"/>
</svg>
