<svg width="66" height="66" viewBox="0 0 66 66" fill="none" xmlns="http://www.w3.org/2000/svg">
<path d="M27.4998 57.1368C25.1069 56.5916 22.8085 55.6935 20.6798 54.472M38.4998 8.86328C43.9672 10.112 48.8487 13.1799 52.3451 17.5648C55.8415 21.9498 57.7455 27.3918 57.7455 33C57.7455 38.6082 55.8415 44.0503 52.3451 48.4352C48.8487 52.8201 43.9672 55.8881 38.4998 57.1368M12.5921 47.0058C11.0936 44.8254 9.95436 42.4189 9.21782 39.8778M8.59082 28.875C9.03082 26.2625 9.87782 23.7875 11.0658 21.5188L11.5306 20.68M18.9941 12.5923C21.5686 10.8237 24.4547 9.55843 27.4998 8.86328" stroke="#EE5C3B" stroke-width="2" stroke-linecap="round" stroke-linejoin="round"/>
</svg>
