<svg width="66" height="66" viewBox="0 0 66 66" fill="none" xmlns="http://www.w3.org/2000/svg">
<path d="M13.75 52.25V28.347C13.75 27.643 13.9077 26.9766 14.223 26.3477C14.5383 25.7189 14.9728 25.201 15.5265 24.794L30.3353 13.5795C31.1108 12.9873 31.9963 12.6912 32.9917 12.6912C33.9872 12.6912 34.8783 12.9873 35.6647 13.5795L50.4735 24.7912C51.029 25.1982 51.4635 25.7171 51.777 26.3477C52.0923 26.9766 52.25 27.643 52.25 28.347V52.25C52.25 52.987 51.9759 53.6296 51.4277 54.1777C50.8796 54.7259 50.237 55 49.5 55H40.194C39.5633 55 39.0353 54.7873 38.61 54.362C38.1847 53.9348 37.972 53.4068 37.972 52.778V39.6632C37.972 39.0344 37.7593 38.5073 37.334 38.082C36.9068 37.6548 36.3788 37.4412 35.75 37.4412H30.25C29.6212 37.4412 29.0941 37.6548 28.6688 38.082C28.2416 38.5073 28.028 39.0344 28.028 39.6632V52.7807C28.028 53.4096 27.8153 53.9366 27.39 54.362C26.9647 54.7873 26.4376 55 25.8088 55H16.5C15.763 55 15.1204 54.7259 14.5722 54.1777C14.0241 53.6296 13.75 52.987 13.75 52.25Z" fill="#EE5C3B"/>
</svg>
