<svg width="43" height="49" viewBox="0 0 43 49" fill="none" xmlns="http://www.w3.org/2000/svg">
<path d="M18.1053 4.45455C13.9037 4.45455 9.87418 6.09715 6.9032 9.02102C3.93223 11.9449 2.26316 15.9105 2.26316 20.0455C2.26316 20.6362 2.5016 21.2027 2.92602 21.6204C3.35045 22.0381 3.92609 22.2727 4.52632 22.2727C5.12654 22.2727 5.70219 22.0381 6.12661 21.6204C6.55103 21.2027 6.78947 20.6362 6.78947 20.0455C6.78947 17.0919 7.98167 14.2593 10.1038 12.1709C12.2259 10.0824 15.1041 8.90909 18.1053 8.90909C21.1064 8.90909 23.9846 10.0824 26.1067 12.1709C28.2289 14.2593 29.4211 17.0919 29.4211 20.0455C29.414 22.0604 28.8592 24.0368 27.8142 25.7695L19.7574 42.3182C19.3605 42.9947 18.7898 43.5566 18.1026 43.9475C17.4154 44.3384 16.6359 44.5447 15.8421 44.5455C14.6417 44.5455 13.4904 44.0761 12.6415 43.2407C11.7927 42.4054 11.3158 41.2723 11.3158 40.0909C11.3158 39.5002 11.0774 38.9337 10.6529 38.516C10.2285 38.0983 9.65286 37.8636 9.05263 37.8636C8.45241 37.8636 7.87676 38.0983 7.45234 38.516C7.02791 38.9337 6.78947 39.5002 6.78947 40.0909C6.78947 42.4537 7.74323 44.7198 9.44093 46.3906C11.1386 48.0614 13.4412 49 15.8421 49C17.4606 48.9986 19.0492 48.5701 20.4423 47.7592C21.8355 46.9484 22.9822 45.7847 23.7632 44.3895L31.82 27.8409C33.2192 25.4741 33.9534 22.7836 33.9474 20.0455C33.9474 15.9105 32.2783 11.9449 29.3073 9.02102C26.3364 6.09715 22.3069 4.45455 18.1053 4.45455ZM2.26316 31.1818C1.81555 31.1818 1.37799 31.3124 1.00582 31.5572C0.633642 31.8019 0.343567 32.1498 0.172274 32.5568C0.000980586 32.9637 -0.0438375 33.4116 0.043487 33.8436C0.130811 34.2757 0.346356 34.6725 0.662865 34.984C0.979373 35.2955 1.38263 35.5076 1.82164 35.5936C2.26065 35.6795 2.71569 35.6354 3.12923 35.4668C3.54277 35.2982 3.89623 35.0128 4.14491 34.6465C4.39359 34.2802 4.52632 33.8496 4.52632 33.4091C4.52632 32.8184 4.28788 32.2519 3.86345 31.8342C3.43903 31.4165 2.86339 31.1818 2.26316 31.1818ZM33.0195 0.445455C32.7817 0.269961 32.5112 0.142274 32.2233 0.0696832C31.9353 -0.00290712 31.6357 -0.018979 31.3415 0.0223853C31.0473 0.0637496 30.7643 0.16174 30.5085 0.310761C30.2528 0.459783 30.0294 0.656917 29.8511 0.890909C29.6727 1.1249 29.543 1.39117 29.4692 1.67451C29.3955 1.95784 29.3791 2.25271 29.4212 2.54226C29.4632 2.83181 29.5628 3.11037 29.7142 3.36205C29.8656 3.61373 30.0659 3.8336 30.3037 4.00909C32.8375 5.87394 34.8951 8.29408 36.3132 11.0776C37.7313 13.8612 38.4711 16.9316 38.4737 20.0455C38.4737 20.6362 38.7121 21.2027 39.1365 21.6204C39.561 22.0381 40.1366 22.2727 40.7368 22.2727C41.3371 22.2727 41.9127 22.0381 42.3371 21.6204C42.7616 21.2027 43 20.6362 43 20.0455C42.9869 16.2419 42.079 12.493 40.3474 9.09253C38.6159 5.69206 36.1077 2.73239 33.0195 0.445455ZM18.1053 17.8182C18.7055 17.8182 19.2811 18.0528 19.7056 18.4705C20.13 18.8882 20.3684 19.4547 20.3684 20.0455C20.3684 20.6362 20.6069 21.2027 21.0313 21.6204C21.4557 22.0381 22.0314 22.2727 22.6316 22.2727C23.2318 22.2727 23.8074 22.0381 24.2319 21.6204C24.6563 21.2027 24.8947 20.6362 24.8947 20.0455C24.8947 18.2733 24.1794 16.5738 22.9061 15.3207C21.6329 14.0676 19.9059 13.3636 18.1053 13.3636C16.3046 13.3636 14.5777 14.0676 13.3044 15.3207C12.0311 16.5738 11.3158 18.2733 11.3158 20.0455C11.3128 21.3781 11.7147 22.6812 12.47 23.7873C12.7819 24.2229 13.1383 24.6259 13.5337 24.99L13.9863 25.48C14.2344 25.846 14.3669 26.2761 14.3669 26.7161C14.3669 27.1561 14.2344 27.5863 13.9863 27.9523C13.645 28.4369 13.5129 29.035 13.6189 29.6153C13.725 30.1957 14.0606 30.711 14.5521 31.0482C14.9305 31.3081 15.3806 31.448 15.8421 31.4491C16.207 31.4485 16.5663 31.3611 16.8894 31.1943C17.2125 31.0276 17.4899 30.7864 17.6979 30.4914C18.4715 29.3796 18.8854 28.0636 18.8854 26.7161C18.8854 25.3687 18.4715 24.0527 17.6979 22.9409C17.4598 22.6087 17.1949 22.2958 16.9058 22.0055L16.5889 21.6936C16.4568 21.5705 16.3356 21.4364 16.2268 21.2927C15.9751 20.924 15.8411 20.4897 15.8421 20.0455C15.8421 19.4547 16.0805 18.8882 16.505 18.4705C16.9294 18.0528 17.505 17.8182 18.1053 17.8182ZM9.05263 31.1818C9.50024 31.1818 9.9378 31.0512 10.31 30.8065C10.6821 30.5617 10.9722 30.2139 11.1435 29.8069C11.3148 29.3999 11.3596 28.9521 11.2723 28.52C11.185 28.088 10.9694 27.6911 10.6529 27.3796C10.3364 27.0681 9.93316 26.856 9.49415 26.7701C9.05514 26.6841 8.6001 26.7282 8.18656 26.8968C7.77302 27.0654 7.41956 27.3509 7.17089 27.7171C6.92221 28.0834 6.78947 28.514 6.78947 28.9545C6.78947 29.5453 7.02791 30.1118 7.45234 30.5295C7.87676 30.9472 8.45241 31.1818 9.05263 31.1818Z" fill="#4A4A4A"/>
</svg>
