<svg width="66" height="66" viewBox="0 0 66 66" fill="none" xmlns="http://www.w3.org/2000/svg">
<path d="M13.75 52.2499V28.3469C13.75 27.6429 13.9077 26.9765 14.223 26.3477C14.5383 25.7188 14.9728 25.2009 15.5265 24.7939L30.3353 13.5794C31.1108 12.9872 31.9962 12.6912 32.9917 12.6912C33.9872 12.6912 34.8782 12.9872 35.6647 13.5794L50.4735 24.7912C51.029 25.1982 51.4635 25.717 51.777 26.3477C52.0923 26.9765 52.25 27.6429 52.25 28.3469V52.2499C52.25 52.9869 51.9759 53.6295 51.4278 54.1777C50.8796 54.7258 50.237 54.9999 49.5 54.9999H40.194C39.5633 54.9999 39.0353 54.7872 38.61 54.3619C38.1847 53.9347 37.972 53.4067 37.972 52.7779V39.6632C37.972 39.0343 37.7593 38.5072 37.334 38.0819C36.9068 37.6547 36.3788 37.4412 35.75 37.4412H30.25C29.6212 37.4412 29.0941 37.6547 28.6688 38.0819C28.2416 38.5072 28.028 39.0343 28.028 39.6632V52.7807C28.028 53.4095 27.8153 53.9366 27.39 54.3619C26.9647 54.7872 26.4376 54.9999 25.8088 54.9999H16.5C15.763 54.9999 15.1204 54.7258 14.5722 54.1777C14.0241 53.6295 13.75 52.9869 13.75 52.2499Z" fill="#EE5C3B"/>
</svg>
