<svg width="24" height="40" viewBox="0 0 24 40" fill="none" xmlns="http://www.w3.org/2000/svg">
<path d="M16.125 23.445L18.0761 23.6497V39.5312L12.6868 33.7764V24.621L14.252 25.3854L16.125 23.445ZM7.53552 23.445L5.58336 23.6497V39.5312L10.9726 33.7764V24.621L9.40741 25.3854L7.53552 23.445ZM22.315 13.4951L22.9464 15.6929L21.0511 16.9708L20.8924 19.2542L18.6743 19.8064L17.7459 21.8958L15.472 21.6556L13.8843 23.2959L11.8302 22.2924L9.77616 23.2959L8.18847 21.6502L5.91456 21.8904L4.98618 19.801L2.76813 19.2542L2.60941 16.9739L0.708641 15.6918L1.34011 13.4941L0 11.6426L1.34441 9.79326L0.708641 7.59988L2.60511 6.32199L2.76384 4.04164L4.98618 3.49491L5.91456 1.40551L8.18847 1.64562L9.77616 0L11.8302 1.00349L13.8843 0L15.472 1.64562L17.7459 1.40551L18.6743 3.49491L20.8924 4.04705L21.0511 6.32732L22.9464 7.60521L22.315 9.80298L23.6605 11.6426L22.315 13.4951ZM18.0857 11.6426C18.0857 10.4148 17.7216 9.21445 17.0394 8.1935C16.3573 7.17255 15.3877 6.37681 14.2532 5.90692C13.1188 5.43703 11.8705 5.31409 10.6662 5.55363C9.46195 5.79318 8.35574 6.38447 7.48749 7.25271C6.61925 8.12096 6.02796 9.22717 5.78842 10.4315C5.54887 11.6358 5.67181 12.884 6.1417 14.0185C6.61159 15.1529 7.40733 16.1225 8.42828 16.8047C9.44923 17.4868 10.6495 17.8509 11.8774 17.8509C13.5232 17.8484 15.1008 17.1935 16.2645 16.0297C17.4282 14.866 18.0832 13.2884 18.0857 11.6426ZM11.8774 7.14957C10.9888 7.14957 10.1201 7.41308 9.38126 7.90677C8.6424 8.40046 8.06652 9.10216 7.72645 9.92314C7.38639 10.7441 7.29741 11.6475 7.47076 12.5191C7.64412 13.3906 8.07203 14.1912 8.70037 14.8195C9.32872 15.4479 10.1293 15.8758 11.0008 16.0492C11.8724 16.2226 12.7758 16.1336 13.5968 15.7936C14.4177 15.4535 15.1195 14.8776 15.6132 14.1388C16.1069 13.3999 16.3704 12.5313 16.3704 11.6426C16.367 10.4524 15.8924 9.31186 15.0505 8.47051C14.2085 7.62915 13.0677 7.1554 11.8774 7.15284V7.14957Z" fill="#F5C518"/>
</svg>
