<svg width="47" height="47" viewBox="0 0 47 47" fill="none" xmlns="http://www.w3.org/2000/svg">
<path d="M16.8906 41.125C13.8226 41.125 11.2193 40.0557 9.08079 37.9172C6.94229 35.7787 5.8737 33.1768 5.875 30.1113C5.875 28.6426 6.15243 27.2391 6.70729 25.9009C7.26215 24.5627 8.06181 23.3707 9.10625 22.325L22.325 9.10625C23.3694 8.06181 24.5608 7.26215 25.899 6.70729C27.2372 6.15243 28.6406 5.875 30.1094 5.875C33.1774 5.875 35.7807 6.9436 37.9192 9.08079C40.0577 11.218 41.1263 13.8213 41.125 16.8906C41.125 18.3594 40.8476 19.7628 40.2927 21.101C39.7378 22.4392 38.9382 23.6306 37.8938 24.675L24.675 37.8938C23.6306 38.9382 22.4392 39.7378 21.101 40.2927C19.7628 40.8476 18.3594 41.125 16.8906 41.125ZM29.9135 27.1229L35.1521 21.9333C35.8049 21.2806 36.3108 20.5135 36.6698 19.6323C37.0288 18.751 37.2083 17.8372 37.2083 16.8906C37.2083 14.9323 36.5151 13.2599 35.1286 11.8734C33.7421 10.4869 32.069 9.79297 30.1094 9.79167C29.1628 9.79167 28.249 9.97118 27.3677 10.3302C26.4865 10.6892 25.7194 11.1951 25.0667 11.8479L19.8771 17.0865L29.9135 27.1229ZM16.8906 37.2083C17.8372 37.2083 18.751 37.0288 19.6323 36.6698C20.5135 36.3108 21.2806 35.8049 21.9333 35.1521L27.1229 29.9135L17.0865 19.8771L11.8479 25.0667C11.1951 25.7194 10.6892 26.4865 10.3302 27.3677C9.97118 28.249 9.79167 29.1628 9.79167 30.1094C9.79167 32.0677 10.4856 33.7408 11.8734 35.1286C13.2612 36.5164 14.9336 37.2096 16.8906 37.2083Z" fill="#4A4A4A"/>
</svg>
