<svg width="108" height="108" viewBox="0 0 108 108" fill="none" xmlns="http://www.w3.org/2000/svg">
<path d="M27 90C24.525 90 22.407 89.1195 20.646 87.3585C18.885 85.5975 18.003 83.478 18 81C17.997 78.522 18.879 76.404 20.646 74.646C22.413 72.888 24.531 72.006 27 72C29.469 71.994 31.5885 72.876 33.3585 74.646C35.1285 76.416 36.009 78.534 36 81C35.991 83.466 35.1105 85.5855 33.3585 87.3585C31.6065 89.1315 29.487 90.012 27 90ZM54 90C51.525 90 49.407 89.1195 47.646 87.3585C45.885 85.5975 45.003 83.478 45 81C44.997 78.522 45.879 76.404 47.646 74.646C49.413 72.888 51.531 72.006 54 72C56.469 71.994 58.5885 72.876 60.3585 74.646C62.1285 76.416 63.009 78.534 63 81C62.991 83.466 62.1105 85.5855 60.3585 87.3585C58.6065 89.1315 56.487 90.012 54 90ZM81 90C78.525 90 76.407 89.1195 74.646 87.3585C72.885 85.5975 72.003 83.478 72 81C71.997 78.522 72.879 76.404 74.646 74.646C76.413 72.888 78.531 72.006 81 72C83.469 71.994 85.5885 72.876 87.3585 74.646C89.1285 76.416 90.009 78.534 90 81C89.991 83.466 89.1105 85.5855 87.3585 87.3585C85.6065 89.1315 83.487 90.012 81 90ZM27 63C24.525 63 22.407 62.1195 20.646 60.3585C18.885 58.5975 18.003 56.478 18 54C17.997 51.522 18.879 49.404 20.646 47.646C22.413 45.888 24.531 45.006 27 45C29.469 44.994 31.5885 45.876 33.3585 47.646C35.1285 49.416 36.009 51.534 36 54C35.991 56.466 35.1105 58.5855 33.3585 60.3585C31.6065 62.1315 29.487 63.012 27 63ZM54 63C51.525 63 49.407 62.1195 47.646 60.3585C45.885 58.5975 45.003 56.478 45 54C44.997 51.522 45.879 49.404 47.646 47.646C49.413 45.888 51.531 45.006 54 45C56.469 44.994 58.5885 45.876 60.3585 47.646C62.1285 49.416 63.009 51.534 63 54C62.991 56.466 62.1105 58.5855 60.3585 60.3585C58.6065 62.1315 56.487 63.012 54 63ZM81 63C78.525 63 76.407 62.1195 74.646 60.3585C72.885 58.5975 72.003 56.478 72 54C71.997 51.522 72.879 49.404 74.646 47.646C76.413 45.888 78.531 45.006 81 45C83.469 44.994 85.5885 45.876 87.3585 47.646C89.1285 49.416 90.009 51.534 90 54C89.991 56.466 89.1105 58.5855 87.3585 60.3585C85.6065 62.1315 83.487 63.012 81 63ZM27 36C24.525 36 22.407 35.1195 20.646 33.3585C18.885 31.5975 18.003 29.478 18 27C17.997 24.522 18.879 22.404 20.646 20.646C22.413 18.888 24.531 18.006 27 18C29.469 17.994 31.5885 18.876 33.3585 20.646C35.1285 22.416 36.009 24.534 36 27C35.991 29.466 35.1105 31.5855 33.3585 33.3585C31.6065 35.1315 29.487 36.012 27 36ZM54 36C51.525 36 49.407 35.1195 47.646 33.3585C45.885 31.5975 45.003 29.478 45 27C44.997 24.522 45.879 22.404 47.646 20.646C49.413 18.888 51.531 18.006 54 18C56.469 17.994 58.5885 18.876 60.3585 20.646C62.1285 22.416 63.009 24.534 63 27C62.991 29.466 62.1105 31.5855 60.3585 33.3585C58.6065 35.1315 56.487 36.012 54 36ZM81 36C78.525 36 76.407 35.1195 74.646 33.3585C72.885 31.5975 72.003 29.478 72 27C71.997 24.522 72.879 22.404 74.646 20.646C76.413 18.888 78.531 18.006 81 18C83.469 17.994 85.5885 18.876 87.3585 20.646C89.1285 22.416 90.009 24.534 90 27C89.991 29.466 89.1105 31.5855 87.3585 33.3585C85.6065 35.1315 83.487 36.012 81 36Z" fill="#EE5C3B"/>
</svg>
