<svg width="96" height="96" viewBox="0 0 96 96" fill="none" xmlns="http://www.w3.org/2000/svg">
<g filter="url(#filter0_d_1_16)">
<path d="M78 12H69V9C69 8.20435 68.6839 7.44129 68.1213 6.87868C67.5587 6.31607 66.7956 6 66 6C65.2044 6 64.4413 6.31607 63.8787 6.87868C63.3161 7.44129 63 8.20435 63 9V12H33V9C33 8.20435 32.6839 7.44129 32.1213 6.87868C31.5587 6.31607 30.7956 6 30 6C29.2044 6 28.4413 6.31607 27.8787 6.87868C27.3161 7.44129 27 8.20435 27 9V12H18C16.4087 12 14.8826 12.6321 13.7574 13.7574C12.6321 14.8826 12 16.4087 12 18V78C12 79.5913 12.6321 81.1174 13.7574 82.2426C14.8826 83.3679 16.4087 84 18 84H78C79.5913 84 81.1174 83.3679 82.2426 82.2426C83.3679 81.1174 84 79.5913 84 78V18C84 16.4087 83.3679 14.8826 82.2426 13.7574C81.1174 12.6321 79.5913 12 78 12ZM27 18V21C27 21.7956 27.3161 22.5587 27.8787 23.1213C28.4413 23.6839 29.2044 24 30 24C30.7956 24 31.5587 23.6839 32.1213 23.1213C32.6839 22.5587 33 21.7956 33 21V18H63V21C63 21.7956 63.3161 22.5587 63.8787 23.1213C64.4413 23.6839 65.2044 24 66 24C66.7956 24 67.5587 23.6839 68.1213 23.1213C68.6839 22.5587 69 21.7956 69 21V18H78V30H18V18H27ZM78 78H18V36H78V78ZM42 45V69C42 69.7956 41.6839 70.5587 41.1213 71.1213C40.5587 71.6839 39.7956 72 39 72C38.2044 72 37.4413 71.6839 36.8787 71.1213C36.3161 70.5587 36 69.7956 36 69V49.8525L34.3425 50.685C33.6304 51.0411 32.806 51.0996 32.0507 50.8479C31.2954 50.5961 30.6711 50.0546 30.315 49.3425C29.9589 48.6304 29.9004 47.806 30.1521 47.0507C30.4039 46.2954 30.9454 45.6711 31.6575 45.315L37.6575 42.315C38.115 42.086 38.6235 41.9779 39.1347 42.0009C39.6458 42.0238 40.1425 42.1771 40.5777 42.4462C41.0129 42.7153 41.372 43.0912 41.6209 43.5382C41.8699 43.9851 42.0004 44.4884 42 45ZM64.185 56.4187L57 66H63C63.7956 66 64.5587 66.3161 65.1213 66.8787C65.6839 67.4413 66 68.2044 66 69C66 69.7956 65.6839 70.5587 65.1213 71.1213C64.5587 71.6839 63.7956 72 63 72H51C50.4429 72 49.8967 71.8449 49.4228 71.552C48.9489 71.259 48.5659 70.84 48.3167 70.3416C48.0676 69.8433 47.9621 69.2855 48.0121 68.7306C48.0622 68.1757 48.2657 67.6457 48.6 67.2L59.3925 52.8113C59.638 52.4844 59.8141 52.1109 59.91 51.7136C60.006 51.3163 60.0197 50.9035 59.9504 50.5007C59.8811 50.0979 59.7302 49.7135 59.507 49.3711C59.2837 49.0287 58.9929 48.7355 58.6523 48.5096C58.3117 48.2836 57.9285 48.1296 57.5263 48.0571C57.124 47.9846 56.7112 47.995 56.3131 48.0877C55.915 48.1805 55.5401 48.3536 55.2113 48.5964C54.8826 48.8393 54.6069 49.1468 54.4013 49.5C54.2101 49.8521 53.9503 50.1623 53.6373 50.4123C53.3243 50.6624 52.9644 50.8472 52.5788 50.9559C52.1932 51.0646 51.7898 51.0949 51.3923 51.0452C50.9948 50.9954 50.6112 50.8666 50.2643 50.6662C49.9174 50.4658 49.6142 50.198 49.3725 49.8785C49.1308 49.559 48.9555 49.1944 48.857 48.8061C48.7585 48.4177 48.7387 48.0136 48.7989 47.6176C48.8591 47.2215 48.9981 46.8415 49.2075 46.5C50.1985 44.7851 51.7275 43.445 53.5576 42.6874C55.3876 41.9298 57.4164 41.797 59.3296 42.3097C61.2427 42.8224 62.9334 43.9519 64.1393 45.523C65.3453 47.0942 65.9993 49.0193 66 51C66.0064 52.9565 65.3685 54.8608 64.185 56.4187Z" fill="#EE5C3B"/>
</g>
<defs>
<filter id="filter0_d_1_16" x="-4" y="0" width="104" height="104" filterUnits="userSpaceOnUse" color-interpolation-filters="sRGB">
<feFlood flood-opacity="0" result="BackgroundImageFix"/>
<feColorMatrix in="SourceAlpha" type="matrix" values="0 0 0 0 0 0 0 0 0 0 0 0 0 0 0 0 0 0 127 0" result="hardAlpha"/>
<feOffset dy="4"/>
<feGaussianBlur stdDeviation="2"/>
<feComposite in2="hardAlpha" operator="out"/>
<feColorMatrix type="matrix" values="0 0 0 0 0 0 0 0 0 0 0 0 0 0 0 0 0 0 0.25 0"/>
<feBlend mode="normal" in2="BackgroundImageFix" result="effect1_dropShadow_1_16"/>
<feBlend mode="normal" in="SourceGraphic" in2="effect1_dropShadow_1_16" result="shape"/>
</filter>
</defs>
</svg>
