<svg width="44" height="49" viewBox="0 0 44 49" fill="none" xmlns="http://www.w3.org/2000/svg">
<path d="M18.9193 4.45455C14.6981 4.45455 10.6498 6.09715 7.665 9.02102C4.68018 11.9449 3.00332 15.9105 3.00332 20.0455C3.00332 20.6362 3.24288 21.2027 3.66928 21.6204C4.09568 22.0381 4.67401 22.2727 5.27703 22.2727C5.88006 22.2727 6.45838 22.0381 6.88479 21.6204C7.31119 21.2027 7.55074 20.6362 7.55074 20.0455C7.55074 17.0919 8.7485 14.2593 10.8805 12.1709C13.0125 10.0824 15.9042 8.90909 18.9193 8.90909C21.9344 8.90909 24.826 10.0824 26.9581 12.1709C29.0901 14.2593 30.2878 17.0919 30.2878 20.0455C30.2807 22.0604 29.7233 24.0368 28.6735 25.7695L20.5791 42.3182C20.1804 42.9947 19.607 43.5566 18.9166 43.9475C18.2262 44.3384 17.443 44.5447 16.6456 44.5455C15.4395 44.5455 14.2829 44.0761 13.4301 43.2407C12.5773 42.4054 12.0982 41.2723 12.0982 40.0909C12.0982 39.5002 11.8586 38.9337 11.4322 38.516C11.0058 38.0983 10.4275 37.8636 9.82445 37.8636C9.22143 37.8636 8.6431 38.0983 8.2167 38.516C7.79029 38.9337 7.55074 39.5002 7.55074 40.0909C7.55074 42.4537 8.50894 44.7198 10.2146 46.3906C11.9202 48.0614 14.2335 49 16.6456 49C18.2717 48.9986 19.8676 48.5701 21.2672 47.7592C22.6669 46.9484 23.819 45.7847 24.6036 44.3895L32.698 27.8409C34.1037 25.4741 34.8413 22.7836 34.8352 20.0455C34.8352 15.9105 33.1584 11.9449 30.1736 9.02102C27.1887 6.09715 23.1405 4.45455 18.9193 4.45455ZM3.00332 31.1818C2.55363 31.1818 2.11403 31.3124 1.74012 31.5572C1.36621 31.8019 1.07478 32.1498 0.902691 32.5568C0.730599 32.9637 0.685572 33.4116 0.773304 33.8436C0.861036 34.2757 1.07759 34.6725 1.39557 34.984C1.71355 35.2955 2.11869 35.5076 2.55975 35.5936C3.0008 35.6795 3.45797 35.6354 3.87343 35.4668C4.2889 35.2982 4.64401 35.0128 4.89384 34.6465C5.14368 34.2802 5.27703 33.8496 5.27703 33.4091C5.27703 32.8184 5.03748 32.2519 4.61108 31.8342C4.18468 31.4165 3.60635 31.1818 3.00332 31.1818ZM33.903 0.445455C33.6642 0.269961 33.3923 0.142274 33.1031 0.0696832C32.8138 -0.00290712 32.5128 -0.018979 32.2173 0.0223853C31.9217 0.0637496 31.6373 0.16174 31.3804 0.310761C31.1234 0.459783 30.899 0.656917 30.7198 0.890909C30.5407 1.1249 30.4103 1.39117 30.3362 1.67451C30.2621 1.95784 30.2457 2.25271 30.2879 2.54226C30.3302 2.83181 30.4302 3.11037 30.5823 3.36205C30.7345 3.61373 30.9357 3.8336 31.1746 4.00909C33.7202 5.87394 35.7874 8.29408 37.2121 11.0776C38.6369 13.8612 39.38 16.9316 39.3827 20.0455C39.3827 20.6362 39.6222 21.2027 40.0486 21.6204C40.475 22.0381 41.0533 22.2727 41.6564 22.2727C42.2594 22.2727 42.8377 22.0381 43.2641 21.6204C43.6905 21.2027 43.9301 20.6362 43.9301 20.0455C43.9169 16.2419 43.0048 12.493 41.2651 9.09253C39.5255 5.69206 37.0057 2.73239 33.903 0.445455ZM18.9193 17.8182C19.5223 17.8182 20.1006 18.0528 20.527 18.4705C20.9534 18.8882 21.193 19.4547 21.193 20.0455C21.193 20.6362 21.4325 21.2027 21.859 21.6204C22.2854 22.0381 22.8637 22.2727 23.4667 22.2727C24.0697 22.2727 24.6481 22.0381 25.0745 21.6204C25.5009 21.2027 25.7404 20.6362 25.7404 20.0455C25.7404 18.2733 25.0218 16.5738 23.7426 15.3207C22.4633 14.0676 20.7284 13.3636 18.9193 13.3636C17.1102 13.3636 15.3752 14.0676 14.096 15.3207C12.8168 16.5738 12.0982 18.2733 12.0982 20.0455C12.0951 21.3781 12.4989 22.6812 13.2578 23.7873C13.5711 24.2229 13.9291 24.6259 14.3264 24.99L14.7811 25.48C15.0304 25.846 15.1635 26.2761 15.1635 26.7161C15.1635 27.1561 15.0304 27.5863 14.7811 27.9523C14.4382 28.4369 14.3055 29.035 14.412 29.6153C14.5186 30.1957 14.8558 30.711 15.3496 31.0482C15.7297 31.3081 16.1819 31.448 16.6456 31.4491C17.0121 31.4485 17.3731 31.3611 17.6978 31.1943C18.0224 31.0276 18.3011 30.7864 18.51 30.4914C19.2872 29.3796 19.7031 28.0636 19.7031 26.7161C19.7031 25.3687 19.2872 24.0527 18.51 22.9409C18.2708 22.6087 18.0047 22.2958 17.7142 22.0055L17.3959 21.6936C17.2631 21.5705 17.1414 21.4364 17.0321 21.2927C16.7792 20.924 16.6446 20.4897 16.6456 20.0455C16.6456 19.4547 16.8851 18.8882 17.3115 18.4705C17.7379 18.0528 18.3163 17.8182 18.9193 17.8182ZM9.82445 31.1818C10.2741 31.1818 10.7137 31.0512 11.0877 30.8065C11.4616 30.5617 11.753 30.2139 11.9251 29.8069C12.0972 29.3999 12.1422 28.9521 12.0545 28.52C11.9667 28.088 11.7502 27.6911 11.4322 27.3796C11.1142 27.0681 10.7091 26.856 10.268 26.7701C9.82697 26.6841 9.36981 26.7282 8.95434 26.8968C8.53887 27.0654 8.18377 27.3509 7.93393 27.7171C7.68409 28.0834 7.55074 28.514 7.55074 28.9545C7.55074 29.5453 7.79029 30.1118 8.2167 30.5295C8.6431 30.9472 9.22143 31.1818 9.82445 31.1818Z" fill="#4A4A4A"/>
</svg>
