<svg width="20" height="20" viewBox="0 0 20 20" fill="none" xmlns="http://www.w3.org/2000/svg">
<path d="M6.47666 2.03242L7.37416 1.74576C8.21416 1.47742 9.11249 1.91159 9.47249 2.75992L10.1892 4.44992C10.5017 5.18576 10.3283 6.05159 9.76083 6.58992L8.18333 8.08826C8.28055 8.98492 8.58166 9.86742 9.08666 10.7358C9.56689 11.5756 10.2104 12.3109 10.9792 12.8983L12.8758 12.2649C13.5942 12.0258 14.3767 12.3016 14.8175 12.9491L15.8442 14.4574C16.3575 15.2108 16.265 16.2491 15.6292 16.8874L14.9475 17.5716C14.2692 18.2524 13.3008 18.4999 12.4042 18.2199C10.2886 17.5599 8.34333 15.6008 6.56833 12.3424C4.7911 9.07853 4.16388 6.30965 4.68666 4.03576C4.90666 3.07909 5.58833 2.31659 6.47833 2.03242" fill="#EE5C3B"/>
</svg>
