<svg width="76" height="76" viewBox="0 0 76 76" fill="none" xmlns="http://www.w3.org/2000/svg">
<path d="M38 6.33325C40.5196 6.33325 42.9359 7.33414 44.7175 9.11574C46.4991 10.8973 47.5 13.3137 47.5 15.8333V34.8333C47.5 37.3528 46.4991 39.7692 44.7175 41.5508C42.9359 43.3324 40.5196 44.3333 38 44.3333C35.4804 44.3333 33.0641 43.3324 31.2825 41.5508C29.5009 39.7692 28.5 37.3528 28.5 34.8333V15.8333C28.5 13.3137 29.5009 10.8973 31.2825 9.11574C33.0641 7.33414 35.4804 6.33325 38 6.33325ZM60.1667 34.8333C60.1667 46.0116 51.9017 55.2266 41.1667 56.7783V66.4999H34.8333V56.7783C24.0983 55.2266 15.8333 46.0116 15.8333 34.8333H22.1667C22.1667 39.0325 23.8348 43.0598 26.8041 46.0291C29.7735 48.9984 33.8007 50.6666 38 50.6666C42.1993 50.6666 46.2265 48.9984 49.1959 46.0291C52.1652 43.0598 53.8333 39.0325 53.8333 34.8333H60.1667Z" fill="#1553DA" fill-opacity="0.92"/>
</svg>
