<svg width="70" height="70" viewBox="0 0 70 70" fill="none" xmlns="http://www.w3.org/2000/svg">
<path d="M70 35C70 54.33 54.33 70 35 70C15.67 70 0 54.33 0 35C0 15.67 15.67 0 35 0C54.33 0 70 15.67 70 35Z" fill="#FFF8E1"/>
<path d="M12.1466 31.8055L10.0733 33.3919L8 31.8055L10.0733 30.2191L12.1466 31.8055ZM62 49.7562C62 50.3513 61.691 50.922 61.1411 51.3428C60.5911 51.7636 59.8452 52 59.0674 52C58.2897 52 57.5438 51.7636 56.9938 51.3428C56.4439 50.922 56.1349 50.3513 56.1349 49.7562H62ZM24.7361 44.6111L10.0733 33.3919L14.2199 30.2191L28.8827 41.4383L24.7361 44.6111ZM10.0733 30.2191L24.7361 19L28.8827 22.1728L14.2199 33.3919L10.0733 30.2191ZM12.1466 29.5617H41.4721V34.0494H12.1466V29.5617ZM62 45.2685V49.7562H56.1349V45.2685H62ZM41.4721 29.5617C46.9165 29.5617 52.1378 31.2165 55.9875 34.1621C59.8372 37.1077 62 41.1028 62 45.2685H56.1349C56.1349 42.293 54.5901 39.4394 51.8403 37.3354C49.0905 35.2314 45.3609 34.0494 41.4721 34.0494V29.5617Z" fill="#EE5C3B"/>
</svg>
