<svg width="49" height="49" viewBox="0 0 49 49" fill="none" xmlns="http://www.w3.org/2000/svg">
<path d="M8.16667 33.6875V40.8333C8.16667 41.9163 8.59687 42.9549 9.36265 43.7207C10.1284 44.4864 11.167 44.9166 12.25 44.9166H36.75C37.833 44.9166 38.8716 44.4864 39.6374 43.7207C40.4031 42.9549 40.8333 41.9163 40.8333 40.8333V33.6875M6.125 28.5833V26.5416C6.125 25.4587 6.55521 24.4201 7.32098 23.6543C8.08675 22.8885 9.12537 22.4583 10.2083 22.4583H38.7917C39.8746 22.4583 40.9132 22.8885 41.679 23.6543C42.4448 24.4201 42.875 25.4587 42.875 26.5416V28.5833M24.5 16.3333V22.4583M24.5 16.3333C27.0766 16.3333 28.5833 14.357 28.5833 10.9739C28.5833 7.5909 24.5 4.08331 24.5 4.08331C24.5 4.08331 20.4167 7.5909 20.4167 10.9739C20.4167 14.357 21.9234 16.3333 24.5 16.3333Z" stroke="black" stroke-width="1.5" stroke-linecap="round" stroke-linejoin="round"/>
<path d="M6.125 28.5833C6.125 30.2078 6.77031 31.7657 7.91897 32.9143C9.06763 34.063 10.6255 34.7083 12.25 34.7083C13.8745 34.7083 15.4324 34.063 16.581 32.9143C17.7297 31.7657 18.375 30.2078 18.375 28.5833C18.375 30.2078 19.0203 31.7657 20.169 32.9143C21.3176 34.063 22.8755 34.7083 24.5 34.7083C26.1245 34.7083 27.6824 34.063 28.831 32.9143C29.9797 31.7657 30.625 30.2078 30.625 28.5833C30.625 30.2078 31.2703 31.7657 32.419 32.9143C33.5676 34.063 35.1256 34.7083 36.75 34.7083C38.3745 34.7083 39.9324 34.063 41.081 32.9143C42.2297 31.7657 42.875 30.2078 42.875 28.5833" stroke="black" stroke-width="1.5" stroke-linecap="round" stroke-linejoin="round"/>
</svg>
