<svg width="99" height="99" viewBox="0 0 99 99" fill="none" xmlns="http://www.w3.org/2000/svg">
<path d="M33 53.625V18.5625C33 16.9215 33.6519 15.3477 34.8123 14.1873C35.9727 13.0269 37.5465 12.375 39.1875 12.375C40.8285 12.375 42.4023 13.0269 43.5627 14.1873C44.7231 15.3477 45.375 16.9215 45.375 18.5625V49.5M45.375 47.4375V39.1875C45.375 37.5465 46.0269 35.9727 47.1873 34.8123C48.3477 33.6519 49.9215 33 51.5625 33C53.2035 33 54.7773 33.6519 55.9377 34.8123C57.0981 35.9727 57.75 37.5465 57.75 39.1875V49.5M57.75 43.3125C57.75 41.6715 58.4019 40.0977 59.5623 38.9373C60.7227 37.7769 62.2965 37.125 63.9375 37.125C65.5785 37.125 67.1523 37.7769 68.3127 38.9373C69.4731 40.0977 70.125 41.6715 70.125 43.3125V49.5" stroke="#675100" stroke-width="2" stroke-linecap="round" stroke-linejoin="round"/>
<path d="M70.125 47.4375C70.125 45.7965 70.7769 44.2227 71.9373 43.0623C73.0977 41.9019 74.6715 41.25 76.3125 41.25C77.9535 41.25 79.5273 41.9019 80.6877 43.0623C81.8481 44.2227 82.5 45.7965 82.5 47.4375V66C82.5 72.5641 79.8924 78.8594 75.2509 83.5009C70.6094 88.1424 64.3141 90.75 57.75 90.75H49.5H50.358C46.2591 90.7507 42.2243 89.7334 38.6157 87.7894C35.0071 85.8455 31.9379 83.0357 29.6835 79.6125L28.875 78.375C27.588 76.4005 23.0697 68.5245 15.3202 54.747C14.5301 53.3426 14.319 51.6853 14.732 50.1276C15.1449 48.57 16.1492 47.2349 17.5312 46.4062C19.004 45.5251 20.7286 45.1602 22.432 45.3694C24.1354 45.5786 25.7205 46.3499 26.9363 47.5612L33 53.625M20.625 12.375L16.5 8.25M16.5 28.875H12.375M57.75 12.375L61.875 8.25M61.875 24.75H66" stroke="#675100" stroke-width="2" stroke-linecap="round" stroke-linejoin="round"/>
</svg>
