<svg width="91" height="91" viewBox="0 0 91 91" fill="none" xmlns="http://www.w3.org/2000/svg">
<path d="M45.5 7.58337C51.3861 7.58316 57.0432 9.86431 61.2827 13.9476C65.5222 18.0308 68.0141 23.5983 68.2348 29.4802L68.25 30.3334H72.0417C73.9549 30.3328 75.7976 31.0553 77.2004 32.3562C78.6033 33.6571 79.4626 35.4402 79.606 37.348L79.625 37.9167V75.8334C79.6256 77.7466 78.903 79.5893 77.6022 80.9921C76.3013 82.395 74.5182 83.2543 72.6104 83.3978L72.0417 83.4167H18.9583C17.0451 83.4173 15.2024 82.6948 13.7996 81.3939C12.3967 80.093 11.5374 78.3099 11.394 76.4021L11.375 75.8334V37.9167C11.3744 36.0035 12.097 34.1608 13.3978 32.758C14.6987 31.3551 16.4818 30.4958 18.3896 30.3523L18.9583 30.3334H22.75C22.75 24.2997 25.1469 18.5131 29.4133 14.2467C33.6798 9.98024 39.4663 7.58337 45.5 7.58337ZM72.0417 37.9167H18.9583V75.8334H72.0417V37.9167ZM45.5 45.5C47.1175 45.5006 48.6924 46.0182 49.9948 46.9775C51.2972 47.9367 52.2587 49.2872 52.739 50.8317C53.2192 52.3763 53.193 54.0339 52.6642 55.5625C52.1354 57.0911 51.1317 58.4106 49.7998 59.3283L49.2917 59.6505V64.4584C49.2906 65.4248 48.9205 66.3543 48.2571 67.0571C47.5937 67.7598 46.687 68.1827 45.7222 68.2393C44.7575 68.296 43.8075 67.9821 43.0664 67.3618C42.3253 66.7415 41.849 65.8617 41.7349 64.902L41.7083 64.4584V59.6505C40.2627 58.8158 39.1329 57.5274 38.4942 55.9852C37.8554 54.443 37.7434 52.733 38.1754 51.1206C38.6075 49.5082 39.5595 48.0834 40.8838 47.0672C42.2081 46.051 43.8307 45.5001 45.5 45.5ZM45.5 15.1667C41.4776 15.1667 37.6198 16.7646 34.7755 19.6089C31.9312 22.4532 30.3333 26.3109 30.3333 30.3334H60.6667C60.6667 26.3109 59.0688 22.4532 56.2245 19.6089C53.3802 16.7646 49.5225 15.1667 45.5 15.1667Z" fill="#EE5C3B"/>
</svg>
