<svg width="76" height="76" viewBox="0 0 76 76" fill="none" xmlns="http://www.w3.org/2000/svg">
<path d="M38 6.3335C40.5196 6.3335 42.9359 7.33439 44.7175 9.11598C46.4991 10.8976 47.5 13.3139 47.5 15.8335V34.8335C47.5 37.3531 46.4991 39.7694 44.7175 41.551C42.9359 43.3326 40.5196 44.3335 38 44.3335C35.4805 44.3335 33.0641 43.3326 31.2825 41.551C29.5009 39.7694 28.5 37.3531 28.5 34.8335V15.8335C28.5 13.3139 29.5009 10.8976 31.2825 9.11598C33.0641 7.33439 35.4805 6.3335 38 6.3335ZM60.1667 34.8335C60.1667 46.0118 51.9017 55.2268 41.1667 56.7785V66.5002H34.8333V56.7785C24.0983 55.2268 15.8333 46.0118 15.8333 34.8335H22.1667C22.1667 39.0328 23.8348 43.06 26.8042 46.0294C29.7735 48.9987 33.8007 50.6668 38 50.6668C42.1993 50.6668 46.2265 48.9987 49.1959 46.0294C52.1652 43.06 53.8333 39.0328 53.8333 34.8335H60.1667Z" fill="#FE3C3C"/>
</svg>
