<svg width="75" height="75" viewBox="0 0 75 75" fill="none" xmlns="http://www.w3.org/2000/svg">
<path d="M37.5 6.25C39.9864 6.25 42.371 7.23772 44.1291 8.99587C45.8873 10.754 46.875 13.1386 46.875 15.625V34.375C46.875 36.8614 45.8873 39.246 44.1291 41.0041C42.371 42.7623 39.9864 43.75 37.5 43.75C35.0136 43.75 32.629 42.7623 30.8709 41.0041C29.1127 39.246 28.125 36.8614 28.125 34.375V15.625C28.125 13.1386 29.1127 10.754 30.8709 8.99587C32.629 7.23772 35.0136 6.25 37.5 6.25ZM59.375 34.375C59.375 45.4063 51.2188 54.5 40.625 56.0313V65.625H34.375V56.0313C23.7812 54.5 15.625 45.4063 15.625 34.375H21.875C21.875 38.519 23.5212 42.4933 26.4515 45.4235C29.3817 48.3538 33.356 50 37.5 50C41.644 50 45.6183 48.3538 48.5485 45.4235C51.4788 42.4933 53.125 38.519 53.125 34.375H59.375Z" fill="#F29985"/>
</svg>
