<svg width="88" height="88" viewBox="0 0 88 88" fill="none" xmlns="http://www.w3.org/2000/svg">
<path d="M59.7814 12.8333C61.6788 13.9746 63.2487 15.5874 64.3384 17.5149C65.4281 19.4424 66.0005 21.6191 66 23.8333C66.0005 26.0476 65.4281 28.2242 64.3384 30.1518C63.2487 32.0793 61.6788 33.6921 59.7814 34.8333M80.6667 77V74.8C80.6667 66.5867 80.6667 62.48 79.068 59.3413C77.6619 56.5817 75.4183 54.3381 72.6587 52.932M34.8334 36.6667C36.5187 36.6667 38.1875 36.3347 39.7445 35.6898C41.3015 35.0449 42.7162 34.0996 43.9079 32.9079C45.0996 31.7162 46.0449 30.3015 46.6898 28.7444C47.3348 27.1874 47.6667 25.5186 47.6667 23.8333C47.6667 22.148 47.3348 20.4792 46.6898 18.9222C46.0449 17.3652 45.0996 15.9505 43.9079 14.7588C42.7162 13.5671 41.3015 12.6218 39.7445 11.9769C38.1875 11.3319 36.5187 11 34.8334 11C31.4298 11 28.1656 12.3521 25.7588 14.7588C23.3521 17.1655 22 20.4297 22 23.8333C22 27.2369 23.3521 30.5012 25.7588 32.9079C28.1656 35.3146 31.4298 36.6667 34.8334 36.6667ZM7.33337 74.8V77H62.3334V74.8C62.3334 66.5867 62.3334 62.48 60.7347 59.3413C59.3286 56.5817 57.085 54.3381 54.3254 52.932C51.1867 51.3333 47.08 51.3333 38.8667 51.3333H30.8C22.5867 51.3333 18.48 51.3333 15.3414 52.932C12.5818 54.3381 10.3382 56.5817 8.93204 59.3413C7.33337 62.48 7.33337 66.5867 7.33337 74.8Z" stroke="#EE5C3B" stroke-width="4" stroke-linecap="round" stroke-linejoin="round"/>
</svg>
