<svg width="119" height="119" viewBox="0 0 119 119" fill="none" xmlns="http://www.w3.org/2000/svg">
<path d="M59.5 59.5C54.0459 59.5 49.3768 57.558 45.4928 53.674C41.6087 49.79 39.6667 45.1209 39.6667 39.6667C39.6667 34.2125 41.6087 29.5434 45.4928 25.6594C49.3768 21.7754 54.0459 19.8334 59.5 19.8334C64.9542 19.8334 69.6233 21.7754 73.5073 25.6594C77.3914 29.5434 79.3334 34.2125 79.3334 39.6667C79.3334 45.1209 77.3914 49.79 73.5073 53.674C69.6233 57.558 64.9542 59.5 59.5 59.5ZM19.8334 99.1667V85.2834C19.8334 82.4737 20.5573 79.892 22.0051 77.5385C23.453 75.1849 25.3735 73.3867 27.7667 72.1438C32.8903 69.582 38.0966 67.6615 43.3855 66.3822C48.6743 65.103 54.0459 64.4617 59.5 64.4584C64.9542 64.4551 70.3257 65.0963 75.6146 66.3822C80.9035 67.6681 86.1098 69.5886 91.2334 72.1438C93.6299 73.3834 95.5521 75.1816 96.9999 77.5385C98.4478 79.8953 99.17 82.477 99.1667 85.2834V99.1667H19.8334Z" fill="#EE5C3B"/>
</svg>
