<svg width="29" height="26" viewBox="0 0 29 26" fill="none" xmlns="http://www.w3.org/2000/svg">
<path d="M29 13C29 20.1797 22.5081 26 14.5 26C6.49187 26 0 20.1797 0 13C0 5.8203 6.49187 0 14.5 0C22.5081 0 29 5.8203 29 13Z" fill="#D9D9D9"/>
<path d="M13.485 13.91H8.41C8.12242 13.91 7.88152 13.8226 7.68732 13.6479C7.49312 13.4732 7.39568 13.2572 7.395 13C7.39432 12.7428 7.49176 12.5268 7.68732 12.3521C7.88288 12.1774 8.12377 12.09 8.41 12.09H13.485V7.54C13.485 7.28217 13.5824 7.06619 13.7773 6.89208C13.9722 6.71797 14.2131 6.63061 14.5 6.63C14.7869 6.62939 15.0281 6.71675 15.2237 6.89208C15.4193 7.06741 15.5164 7.28338 15.515 7.54V12.09H20.59C20.8776 12.09 21.1188 12.1774 21.3137 12.3521C21.5086 12.5268 21.6057 12.7428 21.605 13C21.6043 13.2572 21.5069 13.4735 21.3127 13.6488C21.1185 13.8242 20.8776 13.9112 20.59 13.91H15.515V18.46C15.515 18.7178 15.4176 18.9341 15.2227 19.1088C15.0278 19.2836 14.7869 19.3706 14.5 19.37C14.2131 19.3694 13.9722 19.282 13.7773 19.1079C13.5824 18.9338 13.485 18.7178 13.485 18.46V13.91Z" fill="#4A4A4A"/>
</svg>
