<svg width="59" height="59" viewBox="0 0 59 59" fill="none" xmlns="http://www.w3.org/2000/svg">
<path d="M48.1833 51.625L32.6958 36.1375C31.4667 37.1208 30.0531 37.8993 28.4552 38.4729C26.8573 39.0465 25.1569 39.3333 23.3542 39.3333C18.8882 39.3333 15.1089 37.7862 12.0163 34.692C8.92375 31.5978 7.37664 27.8185 7.375 23.3542C7.37336 18.8898 8.92047 15.1106 12.0163 12.0163C15.1122 8.92211 18.8915 7.375 23.3542 7.375C27.8169 7.375 31.597 8.92211 34.6945 12.0163C37.792 15.1106 39.3383 18.8898 39.3333 23.3542C39.3333 25.1569 39.0465 26.8573 38.4729 28.4552C37.8993 30.0531 37.1208 31.4667 36.1375 32.6958L51.625 48.1833L48.1833 51.625ZM23.3542 34.4167C26.4271 34.4167 29.0395 33.3416 31.1913 31.1913C33.3432 29.0411 34.4183 26.4287 34.4167 23.3542C34.415 20.2796 33.3399 17.668 31.1913 15.5195C29.0428 13.3709 26.4304 12.2949 23.3542 12.2917C20.278 12.2884 17.6664 13.3643 15.5195 15.5195C13.3725 17.6746 12.2966 20.2862 12.2917 23.3542C12.2868 26.4222 13.3627 29.0346 15.5195 31.1913C17.6762 33.3481 20.2878 34.4232 23.3542 34.4167Z" fill="#311D07"/>
</svg>
